<?xml version="1.0" standalone="no"?>
<!DOCTYPE svg PUBLIC "-//W3C//DTD SVG 20010904//EN"
 "http://www.w3.org/TR/2001/REC-SVG-20010904/DTD/svg10.dtd">
<svg version="1.0" xmlns="http://www.w3.org/2000/svg"
 width="1280.000000pt" height="640.000000pt" viewBox="0 0 1280.000000 640.000000"
 preserveAspectRatio="xMidYMid meet">
<metadata>
Created by potrace 1.15, written by Peter Selinger 2001-2017
</metadata>
<g transform="translate(0.000000,640.000000) scale(0.100000,-0.100000)"
fill="#000000" stroke="none">
<path d="M11637 5906 c-4 -27 -7 -63 -7 -81 0 -38 -11 -49 -67 -66 -61 -17
-56 -39 7 -39 48 0 66 -12 35 -24 -22 -8 -18 -26 5 -26 23 0 24 -3 8 -30 -10
-15 -10 -25 -2 -38 16 -24 -1 -592 -21 -722 -22 -150 -38 -191 -95 -248 -28
-28 -50 -58 -50 -68 0 -39 25 -97 52 -119 l29 -24 -20 -38 c-10 -21 -42 -60
-71 -87 -51 -47 -53 -53 -28 -89 11 -14 10 -19 -1 -27 -12 -7 -12 -11 -2 -24
7 -8 10 -24 6 -35 -3 -10 -1 -22 5 -26 6 -3 10 -46 10 -100 0 -79 -3 -96 -17
-104 -17 -9 -17 -10 0 -28 21 -24 23 -79 2 -87 -8 -3 -15 -16 -15 -29 0 -17
-10 -28 -35 -40 -112 -54 -193 -207 -195 -368 0 -29 -6 -51 -15 -59 -14 -12
-12 -18 20 -50 l35 -36 0 -153 0 -153 -22 6 c-13 3 -26 6 -29 6 -3 0 -9 28
-12 63 -4 47 -2 66 10 79 20 23 9 72 -21 86 -18 8 -24 23 -35 93 -22 141 -39
190 -82 234 -21 22 -41 55 -45 73 -4 19 -18 41 -35 53 -36 26 -59 99 -59 191
0 37 -4 68 -8 68 -5 0 -13 -42 -19 -94 -13 -106 -31 -149 -72 -170 -21 -11
-30 -25 -34 -53 -5 -27 -19 -50 -46 -77 -32 -31 -40 -47 -45 -89 -4 -29 -14
-92 -23 -140 -14 -79 -18 -89 -44 -103 -22 -11 -29 -22 -29 -43 0 -16 4 -31 8
-33 5 -1 12 -35 15 -75 l7 -71 -30 -11 -30 -10 0 -85 c0 -47 -4 -87 -9 -91 -5
-3 -22 17 -38 45 -34 61 -58 65 -72 13 -6 -21 -11 -44 -11 -50 0 -7 -3 -13 -6
-13 -3 0 -49 26 -102 58 l-97 57 -1024 5 -1024 5 2 71 c2 55 -1 74 -14 84 -29
24 -39 54 -45 144 -6 75 -10 92 -28 107 -20 16 -22 26 -22 143 0 69 -3 126 -7
126 -5 0 -9 -57 -11 -127 -2 -109 -5 -128 -21 -140 -14 -9 -19 -29 -23 -90 -3
-57 -12 -95 -31 -137 -23 -49 -27 -72 -27 -147 l0 -89 -45 0 -44 0 -15 -52
c-8 -29 -20 -72 -26 -95 l-11 -43 -119 0 -120 0 0 86 c0 62 -3 85 -12 82 -7
-3 -31 -76 -55 -164 l-43 -159 0 -185 -1 -185 -133 -245 c-84 -154 -141 -246
-151 -248 -17 -4 -17 14 -13 277 l5 282 33 34 34 35 -37 0 c-37 0 -37 0 -37
43 0 32 -6 49 -21 63 -17 15 -20 27 -16 61 4 37 2 43 -15 43 -18 0 -19 9 -15
238 3 130 5 242 6 247 1 6 -1 23 -5 38 -5 23 -1 34 27 63 l33 34 -32 0 c-32 0
-32 1 -32 48 0 26 5 53 11 59 8 8 8 13 0 17 -15 10 -14 129 1 144 9 9 4 12
-25 12 l-37 0 0 64 c0 36 -4 68 -10 71 -12 8 -14 391 -2 399 5 3 7 18 5 33 -3
20 2 34 16 47 28 25 26 36 -3 36 -23 0 -25 5 -31 65 -5 45 -4 70 5 80 10 12 7
15 -13 20 l-25 7 20 34 c11 19 15 34 9 34 -6 0 -18 14 -27 32 -15 28 -15 32 0
40 19 11 10 38 -14 38 -23 0 -42 -23 -34 -43 8 -21 -28 -41 -44 -25 -17 17
-15 49 5 63 14 10 15 16 5 28 -10 12 -10 16 1 20 8 3 17 28 21 58 7 49 4 58
-40 146 -44 88 -48 101 -52 185 -3 63 -1 97 9 114 10 20 10 27 1 33 -23 14
-30 64 -14 89 12 18 12 28 4 47 -7 14 -16 25 -22 25 -6 0 -10 27 -10 65 0 37
-4 65 -10 65 -6 0 -10 -28 -10 -64 0 -44 -5 -67 -15 -76 -17 -14 -20 -56 -4
-65 13 -9 2 -65 -19 -88 -13 -15 -14 -20 -3 -27 20 -12 25 -100 11 -173 -6
-34 -29 -94 -51 -133 -42 -77 -52 -152 -25 -189 7 -10 11 -26 9 -36 -3 -9 0
-20 6 -23 14 -9 14 -53 1 -61 -21 -13 -46 5 -45 33 0 21 -5 28 -23 30 -24 4
-45 -29 -24 -36 18 -6 15 -26 -9 -56 -20 -25 -20 -28 -5 -51 21 -31 21 -32
-10 -39 -23 -6 -24 -9 -12 -19 12 -9 14 -27 10 -79 -4 -64 -6 -68 -28 -68 -29
0 -30 -11 -4 -35 16 -14 19 -26 14 -51 -3 -18 -1 -34 5 -38 16 -11 15 -368 -1
-384 -9 -9 -12 -35 -10 -77 l4 -65 -42 0 c-38 0 -40 -1 -26 -16 17 -17 23
-119 7 -128 -5 -3 -6 -35 -3 -71 l5 -65 -29 0 -28 0 32 -33 c33 -34 40 -65 20
-85 -9 -9 -9 -18 0 -37 8 -17 12 -99 12 -245 l0 -220 -25 0 c-22 0 -24 -3 -15
-19 15 -30 12 -52 -12 -78 -17 -18 -21 -33 -19 -68 l3 -45 -36 0 c-43 0 -45
-11 -9 -40 l27 -21 4 -298 5 -298 -24 -6 c-13 -3 -80 -7 -149 -8 -128 -1 -141
3 -122 38 8 13 6 20 -6 29 -14 10 -17 32 -19 111 -1 54 -3 99 -4 101 -1 1 -2
8 -3 14 0 7 -9 14 -18 16 -13 2 -18 -3 -18 -17 0 -12 -4 -21 -9 -21 -5 0 -6
-20 -4 -44 3 -25 2 -70 -1 -100 -6 -46 -10 -54 -24 -49 -9 4 -105 91 -213 195
l-196 188 -120 0 c-66 0 -141 3 -167 6 l-46 7 0 81 c0 77 -2 84 -29 110 -24
23 -35 27 -76 24 -67 -4 -83 -29 -92 -135 l-6 -82 -471 6 c-259 3 -613 0 -786
-5 -173 -6 -317 -9 -319 -7 -2 2 1 17 7 33 7 21 7 33 -1 41 -7 7 -3 16 16 31
34 27 34 40 1 40 -25 0 -26 1 -22 63 3 55 0 64 -21 81 -23 19 -23 22 -19 169
3 141 4 150 26 167 l23 19 -28 13 c-23 11 -28 20 -29 53 -1 22 -7 53 -13 68
-6 16 -9 33 -5 38 3 5 -4 9 -14 9 -23 0 -46 25 -38 39 13 20 -35 120 -74 155
-22 20 -40 40 -40 45 0 5 -7 14 -15 21 -11 9 -12 16 -5 25 8 9 8 15 0 20 -6 4
-8 22 -4 46 5 27 3 39 -5 39 -7 0 -10 4 -6 9 3 5 1 12 -5 16 -5 3 -10 15 -10
26 0 24 -17 25 -23 2 -4 -17 -5 -17 -6 0 0 9 -6 17 -12 17 -8 0 -9 -21 -4 -70
5 -48 3 -75 -4 -84 -8 -9 -8 -16 -2 -20 14 -9 -14 -58 -49 -84 -36 -27 -69
-88 -78 -145 -5 -29 -14 -45 -29 -51 -24 -11 -45 -70 -37 -104 7 -26 -19 -72
-41 -72 -22 0 -18 -15 7 -32 20 -13 22 -24 26 -157 l5 -142 -33 -34 c-20 -20
-28 -35 -21 -39 6 -4 11 -29 11 -57 0 -48 -1 -49 -30 -49 -38 0 -38 -13 1 -41
21 -15 27 -25 20 -32 -6 -6 -8 -28 -4 -52 l5 -43 -88 -6 c-95 -7 -533 -26
-596 -26 -34 0 -38 3 -38 24 0 14 -4 28 -10 31 -6 3 -10 -4 -10 -18 0 -14 -7
-31 -17 -38 -15 -13 -16 -4 -10 129 4 87 2 142 -4 142 -5 0 -9 16 -9 35 0 19
-4 35 -10 35 -5 0 -10 -11 -10 -25 0 -14 -5 -25 -10 -25 -11 0 -8 74 5 103 4
9 4 34 0 55 -6 31 -9 34 -15 17 -11 -27 -18 -6 -23 66 -2 30 -7 60 -10 66 -4
6 -5 29 -3 52 2 24 -2 45 -9 51 -20 16 -35 -11 -29 -54 2 -20 1 -43 -3 -49
-10 -17 -15 -46 -14 -94 1 -23 -3 -45 -9 -48 -5 -3 -10 2 -10 12 0 15 -2 16
-10 3 -10 -15 -11 -116 -1 -135 9 -18 9 -35 0 -41 -5 -3 -9 6 -9 20 0 14 -4
26 -10 26 -10 0 -13 -12 -11 -41 1 -9 -5 -22 -14 -29 -17 -14 -20 -65 -5 -75
13 -8 13 -205 0 -205 -6 0 -13 14 -17 30 -6 33 -23 41 -23 11 0 -38 -11 -51
-46 -51 -32 0 -34 2 -54 66 -11 36 -20 81 -20 99 0 19 -4 37 -10 40 -6 4 -4
17 5 36 10 18 11 29 5 29 -6 0 -10 6 -8 13 1 6 -5 26 -14 42 -12 23 -16 65
-17 173 0 79 -3 148 -6 152 -3 5 0 10 6 12 9 3 9 9 0 25 -6 12 -11 33 -11 47
0 13 -5 26 -11 28 -22 7 -62 141 -63 210 -1 49 -6 72 -18 85 -16 16 -19 16
-36 0 -17 -16 -21 -14 -65 31 -26 26 -47 53 -47 59 0 6 -16 25 -35 40 -33 28
-35 33 -33 84 1 30 6 60 12 67 7 10 5 17 -8 24 -14 8 -15 12 -6 18 10 6 8 16
-8 45 -20 32 -22 51 -22 175 0 86 4 141 10 145 8 5 8 11 1 19 -6 7 -7 17 -2
22 5 5 12 19 16 32 5 18 2 22 -15 22 -17 0 -20 4 -15 19 4 14 0 23 -15 31 -16
9 -20 21 -20 61 0 57 -19 93 -63 116 -23 12 -27 17 -16 24 11 7 9 13 -11 29
-14 11 -28 20 -32 20 -5 0 -8 20 -8 45 0 25 -4 45 -8 45 -11 0 -9 31 2 49 5 7
3 18 -3 24 -14 14 -14 62 1 86 17 28 3 53 -29 49 -32 -4 -41 -29 -23 -64 7
-13 10 -33 6 -46 -4 -13 -9 -57 -12 -98 -4 -69 -7 -77 -34 -101 -20 -16 -28
-32 -25 -42 4 -10 -1 -17 -14 -22 -36 -11 -61 -58 -61 -113 0 -43 -4 -52 -26
-67 -21 -14 -24 -19 -13 -26 11 -7 9 -10 -9 -15 -19 -5 -22 -11 -17 -28 4 -11
8 -33 9 -48 0 -14 4 -30 8 -34 5 -4 8 -66 8 -138 0 -115 -3 -135 -21 -165 -11
-18 -18 -40 -14 -49 3 -8 0 -19 -6 -23 -7 -4 -9 -14 -4 -25 4 -11 9 -41 11
-68 4 -46 2 -51 -31 -78 -19 -16 -35 -35 -35 -41 0 -6 -21 -33 -47 -59 -45
-45 -48 -47 -66 -31 -14 13 -22 15 -35 6 -14 -8 -16 -23 -14 -74 2 -49 -2 -73
-17 -103 -12 -22 -24 -56 -27 -75 -3 -20 -12 -41 -19 -46 -19 -16 -25 -68 -26
-244 -1 -144 -3 -167 -21 -197 -11 -19 -17 -34 -13 -34 4 0 2 -7 -5 -15 -10
-12 -9 -19 2 -37 9 -13 12 -29 8 -38 -4 -8 -13 -44 -20 -80 -13 -75 -60 -174
-84 -178 -13 -3 -16 5 -17 40 -1 24 -5 57 -9 73 -7 31 -9 30 -29 -35 -8 -28
-10 -4 -7 112 2 80 0 150 -4 155 -5 4 -10 22 -12 38 -4 35 -20 37 -30 3 -3
-13 -4 21 -1 75 4 68 2 97 -6 97 -6 0 -11 -5 -11 -11 0 -5 -5 -7 -11 -3 -7 4
-8 20 -4 41 4 21 2 40 -5 48 -7 8 -9 19 -5 25 3 5 3 16 -2 22 -4 7 -8 31 -8
53 0 29 -4 40 -15 40 -11 0 -15 -11 -15 -40 0 -22 -4 -46 -8 -53 -5 -6 -5 -17
-2 -22 4 -6 1 -17 -5 -25 -8 -9 -10 -28 -6 -49 4 -20 2 -37 -4 -41 -5 -3 -10
-1 -10 4 0 6 -5 11 -11 11 -8 0 -10 -29 -6 -98 3 -53 2 -87 -1 -74 -10 34 -26
32 -30 -3 -2 -16 -7 -34 -12 -38 -4 -5 -6 -75 -4 -155 3 -116 1 -140 -7 -112
-6 19 -14 42 -17 50 -9 26 -20 -39 -21 -132 -1 -81 -3 -88 -21 -88 -25 0 -40
-35 -40 -91 0 -25 -5 -42 -14 -45 -20 -8 -28 -34 -16 -49 5 -6 16 -30 24 -53
15 -41 14 -44 -19 -114 l-35 -72 0 -438 0 -438 6400 0 6400 0 0 790 0 790 -80
0 c-70 0 -80 2 -80 18 0 10 -19 28 -48 44 l-48 27 -55 -31 c-29 -17 -48 -33
-41 -36 10 -3 9 -8 -4 -23 -15 -17 -33 -19 -181 -19 l-163 0 0 240 0 239 30
43 c25 37 27 45 15 54 -8 6 -15 28 -15 48 0 35 -1 36 -40 36 l-40 0 0 277 0
277 32 33 c29 30 30 34 16 50 -9 10 -18 48 -22 86 -14 146 -75 262 -167 319
-30 19 -49 38 -49 50 0 10 -7 21 -15 24 -20 8 -20 77 0 94 11 9 12 16 4 26
-13 16 -10 244 4 262 6 8 5 17 -3 27 -11 13 -9 20 9 39 l23 24 -45 31 c-30 20
-54 48 -71 83 l-26 52 24 25 c34 37 46 65 46 107 0 32 -7 44 -46 80 -56 53
-68 88 -84 254 -17 181 -28 691 -15 713 7 12 6 23 -3 37 -16 26 -8 40 18 33
27 -7 26 13 -1 28 -30 15 -8 29 49 29 55 0 58 25 4 33 -62 10 -71 23 -80 112
l-8 80 -7 -49z"/>
</g>
</svg>
